<?xml version="1.0" encoding="UTF-8" standalone="no"?>
<!-- Created with Inkscape (http://www.inkscape.org/) -->

<svg
   version="1.1"
   id="svg1"
   width="2834.6399"
   height="2456.6934"
   viewBox="0 0 2834.6399 2456.6934"
   sodipodi:docname="geziekibi-logo-vektorel.svg"
   inkscape:version="1.4 (e7c3feb1, 2024-10-09)"
   xmlns:inkscape="http://www.inkscape.org/namespaces/inkscape"
   xmlns:sodipodi="http://sodipodi.sourceforge.net/DTD/sodipodi-0.dtd"
   xmlns="http://www.w3.org/2000/svg"
   xmlns:svg="http://www.w3.org/2000/svg">
  <defs
     id="defs1">
    <clipPath
       clipPathUnits="userSpaceOnUse"
       id="clipPath3">
      <path
         d="M 0,1842.52 H 2125.98 V 0 H 0 Z"
         transform="translate(0,-2.5000001e-5)"
         id="path3" />
    </clipPath>
    <clipPath
       clipPathUnits="userSpaceOnUse"
       id="clipPath5">
      <path
         d="M 0,0 H 2125.98 V 1842.52 H 0 Z"
         transform="translate(-1092.6183,-1193.3701)"
         id="path5" />
    </clipPath>
    <clipPath
       clipPathUnits="userSpaceOnUse"
       id="clipPath7">
      <path
         d="M 0,0 H 2125.98 V 1842.52 H 0 Z"
         transform="translate(-1163.1738,-1129.3857)"
         id="path7" />
    </clipPath>
    <clipPath
       clipPathUnits="userSpaceOnUse"
       id="clipPath9">
      <path
         d="M 0,0 H 2125.98 V 1842.52 H 0 Z"
         transform="translate(-1162.1856,-1245.584)"
         id="path9" />
    </clipPath>
    <clipPath
       clipPathUnits="userSpaceOnUse"
       id="clipPath11">
      <path
         d="M 0,0 H 2125.98 V 1842.52 H 0 Z"
         transform="translate(-997.86085,-875)"
         id="path11" />
    </clipPath>
    <clipPath
       clipPathUnits="userSpaceOnUse"
       id="clipPath13">
      <path
         d="M 0,0 H 2125.98 V 1842.52 H 0 Z"
         transform="translate(-845.7739,-1067.2246)"
         id="path13" />
    </clipPath>
    <clipPath
       clipPathUnits="userSpaceOnUse"
       id="clipPath15">
      <path
         d="M 0,0 H 2125.98 V 1842.52 H 0 Z"
         transform="translate(-651.19682,-1647.0215)"
         id="path15" />
    </clipPath>
    <clipPath
       clipPathUnits="userSpaceOnUse"
       id="clipPath17">
      <path
         d="M 0,0 H 2125.98 V 1842.52 H 0 Z"
         transform="translate(-1711.8165,-1232.667)"
         id="path17" />
    </clipPath>
    <clipPath
       clipPathUnits="userSpaceOnUse"
       id="clipPath19">
      <path
         d="M 0,0 H 2125.98 V 1842.52 H 0 Z"
         transform="translate(-431.17631,-760.76952)"
         id="path19" />
    </clipPath>
    <clipPath
       clipPathUnits="userSpaceOnUse"
       id="clipPath21">
      <path
         d="M 0,0 H 2125.98 V 1842.52 H 0 Z"
         transform="translate(-1225.8819,-1203.7471)"
         id="path21" />
    </clipPath>
    <clipPath
       clipPathUnits="userSpaceOnUse"
       id="clipPath23">
      <path
         d="M 0,0 H 2125.98 V 1842.52 H 0 Z"
         transform="translate(-911.79355,-1295.0107)"
         id="path23" />
    </clipPath>
    <clipPath
       clipPathUnits="userSpaceOnUse"
       id="clipPath25">
      <path
         d="M 0,0 H 2125.98 V 1842.52 H 0 Z"
         transform="translate(-1100.665,-1369.2646)"
         id="path25" />
    </clipPath>
    <clipPath
       clipPathUnits="userSpaceOnUse"
       id="clipPath27">
      <path
         d="M 0,0 H 2125.98 V 1842.52 H 0 Z"
         transform="translate(-861.3496,-1293.5869)"
         id="path27" />
    </clipPath>
    <clipPath
       clipPathUnits="userSpaceOnUse"
       id="clipPath29">
      <path
         d="M 0,0 H 2125.98 V 1842.52 H 0 Z"
         transform="translate(-1109.631,-1343.9883)"
         id="path29" />
    </clipPath>
    <clipPath
       clipPathUnits="userSpaceOnUse"
       id="clipPath31">
      <path
         d="M 0,0 H 2125.98 V 1842.52 H 0 Z"
         transform="translate(-1265.7129,-1241.75)"
         id="path31" />
    </clipPath>
    <clipPath
       clipPathUnits="userSpaceOnUse"
       id="clipPath33">
      <path
         d="M 0,0 H 2125.98 V 1842.52 H 0 Z"
         transform="translate(-668.30372,-1660.9336)"
         id="path33" />
    </clipPath>
    <clipPath
       clipPathUnits="userSpaceOnUse"
       id="clipPath35">
      <path
         d="M 0,0 H 2125.98 V 1842.52 H 0 Z"
         transform="translate(-668.19382,-1661.0586)"
         id="path35" />
    </clipPath>
    <clipPath
       clipPathUnits="userSpaceOnUse"
       id="clipPath37">
      <path
         d="M 0,0 H 2125.98 V 1842.52 H 0 Z"
         transform="translate(-1257.7521,-1229.0498)"
         id="path37" />
    </clipPath>
    <clipPath
       clipPathUnits="userSpaceOnUse"
       id="clipPath39">
      <path
         d="M 0,0 H 2125.98 V 1842.52 H 0 Z"
         transform="translate(-1276.6992,-1727.1211)"
         id="path39" />
    </clipPath>
    <clipPath
       clipPathUnits="userSpaceOnUse"
       id="clipPath41">
      <path
         d="M 0,0 H 2125.98 V 1842.52 H 0 Z"
         transform="translate(-1292.2881,-1723.124)"
         id="path41" />
    </clipPath>
    <clipPath
       clipPathUnits="userSpaceOnUse"
       id="clipPath43">
      <path
         d="M 0,0 H 2125.98 V 1842.52 H 0 Z"
         transform="translate(-1292.1738,-1722.9961)"
         id="path43" />
    </clipPath>
    <clipPath
       clipPathUnits="userSpaceOnUse"
       id="clipPath45">
      <path
         d="M 0,0 H 2125.98 V 1842.52 H 0 Z"
         transform="translate(-1241.4424,-1212.1035)"
         id="path45" />
    </clipPath>
    <clipPath
       clipPathUnits="userSpaceOnUse"
       id="clipPath47">
      <path
         d="M 0,0 H 2125.98 V 1842.52 H 0 Z"
         transform="translate(-1249.7227,-1224.2559)"
         id="path47" />
    </clipPath>
    <clipPath
       clipPathUnits="userSpaceOnUse"
       id="clipPath49">
      <path
         d="M 0,0 H 2125.98 V 1842.52 H 0 Z"
         transform="translate(-650.90872,-1647.3135)"
         id="path49" />
    </clipPath>
    <clipPath
       clipPathUnits="userSpaceOnUse"
       id="clipPath51">
      <path
         d="M 0,0 H 2125.98 V 1842.52 H 0 Z"
         transform="translate(-1103.3634,-1343.7344)"
         id="path51" />
    </clipPath>
    <clipPath
       clipPathUnits="userSpaceOnUse"
       id="clipPath53">
      <path
         d="M 0,0 H 2125.98 V 1842.52 H 0 Z"
         transform="translate(-1094.8995,-875)"
         id="path53" />
    </clipPath>
    <clipPath
       clipPathUnits="userSpaceOnUse"
       id="clipPath55">
      <path
         d="M 0,0 H 2125.98 V 1842.52 H 0 Z"
         transform="translate(-1094.8995,-875)"
         id="path55" />
    </clipPath>
    <clipPath
       clipPathUnits="userSpaceOnUse"
       id="clipPath57">
      <path
         d="M 0,0 H 2125.98 V 1842.52 H 0 Z"
         transform="translate(-1179.7021,-932.8652)"
         id="path57" />
    </clipPath>
    <clipPath
       clipPathUnits="userSpaceOnUse"
       id="clipPath59">
      <path
         d="M 0,0 H 2125.98 V 1842.52 H 0 Z"
         transform="translate(-1038.8916,-870.80082)"
         id="path59" />
    </clipPath>
    <clipPath
       clipPathUnits="userSpaceOnUse"
       id="clipPath61">
      <path
         d="M 0,0 H 2125.98 V 1842.52 H 0 Z"
         transform="translate(-1133.4552,-982.4687)"
         id="path61" />
    </clipPath>
    <clipPath
       clipPathUnits="userSpaceOnUse"
       id="clipPath63">
      <path
         d="M 0,0 H 2125.98 V 1842.52 H 0 Z"
         transform="translate(-1109.0938,-850.23635)"
         id="path63" />
    </clipPath>
    <clipPath
       clipPathUnits="userSpaceOnUse"
       id="clipPath65">
      <path
         d="M 0,0 H 2125.98 V 1842.52 H 0 Z"
         transform="translate(-1133.8027,-990.3623)"
         id="path65" />
    </clipPath>
    <clipPath
       clipPathUnits="userSpaceOnUse"
       id="clipPath67">
      <path
         d="M 0,1842.52 H 2125.98 V 0 H 0 Z"
         transform="translate(-401.40091,-198.63378)"
         id="path67" />
    </clipPath>
    <clipPath
       clipPathUnits="userSpaceOnUse"
       id="clipPath69">
      <path
         d="M 0,1842.52 H 2125.98 V 0 H 0 Z"
         transform="translate(-439.53861,-188.95308)"
         id="path69" />
    </clipPath>
    <clipPath
       clipPathUnits="userSpaceOnUse"
       id="clipPath71">
      <path
         d="M 0,1842.52 H 2125.98 V 0 H 0 Z"
         transform="translate(-756.15384,-188.95308)"
         id="path71" />
    </clipPath>
    <clipPath
       clipPathUnits="userSpaceOnUse"
       id="clipPath73">
      <path
         d="M 0,1842.52 H 2125.98 V 0 H 0 Z"
         transform="translate(0,-2.5000001e-5)"
         id="path73" />
    </clipPath>
    <clipPath
       clipPathUnits="userSpaceOnUse"
       id="clipPath75">
      <path
         d="M 0,1842.52 H 2125.98 V 0 H 0 Z"
         transform="translate(-995.2612,-188.95308)"
         id="path75" />
    </clipPath>
    <clipPath
       clipPathUnits="userSpaceOnUse"
       id="clipPath77">
      <path
         d="M 0,1842.52 H 2125.98 V 0 H 0 Z"
         transform="translate(-1341.793,-188.95308)"
         id="path77" />
    </clipPath>
    <clipPath
       clipPathUnits="userSpaceOnUse"
       id="clipPath79">
      <path
         d="M 0,1842.52 H 2125.98 V 0 H 0 Z"
         transform="translate(0,-2.5000001e-5)"
         id="path79" />
    </clipPath>
    <clipPath
       clipPathUnits="userSpaceOnUse"
       id="clipPath81">
      <path
         d="M 0,1842.52 H 2125.98 V 0 H 0 Z"
         transform="translate(-1600.7754,-241.69338)"
         id="path81" />
    </clipPath>
    <clipPath
       clipPathUnits="userSpaceOnUse"
       id="clipPath83">
      <path
         d="M 0,1842.52 H 2125.98 V 0 H 0 Z"
         transform="translate(-1781.9454,-188.95308)"
         id="path83" />
    </clipPath>
    <clipPath
       clipPathUnits="userSpaceOnUse"
       id="clipPath85">
      <path
         d="M 0,1842.52 H 2125.98 V 0 H 0 Z"
         transform="translate(-1758.8203,-391.44341)"
         id="path85" />
    </clipPath>
    <clipPath
       clipPathUnits="userSpaceOnUse"
       id="clipPath87">
      <path
         d="M 0,1842.52 H 2125.98 V 0 H 0 Z"
         transform="translate(-1735.3203,-398.72561)"
         id="path87" />
    </clipPath>
  </defs>
  <sodipodi:namedview
     id="namedview1"
     pagecolor="#ffffff"
     bordercolor="#000000"
     borderopacity="0.25"
     inkscape:showpageshadow="2"
     inkscape:pageopacity="0.0"
     inkscape:pagecheckerboard="0"
     inkscape:deskcolor="#d1d1d1"
     inkscape:zoom="0.010583332"
     inkscape:cx="1370.079"
     inkscape:cy="1181.1026"
     inkscape:window-width="1512"
     inkscape:window-height="848"
     inkscape:window-x="0"
     inkscape:window-y="38"
     inkscape:window-maximized="1"
     inkscape:current-layer="layer-MC0">
    <inkscape:page
       x="0"
       y="0"
       inkscape:label="1"
       id="page1"
       width="2834.6399"
       height="2456.6934"
       margin="0"
       bleed="0" />
  </sodipodi:namedview>
  <g
     id="layer-MC0"
     inkscape:groupmode="layer"
     inkscape:label="Layer 1">
    <path
       id="path1"
       d="M 0,0 H 2125.98 V 1842.52 H 0 Z"
       style="fill:#ffffff;fill-opacity:1;fill-rule:nonzero;stroke:none"
       transform="matrix(1.3333333,0,0,-1.3333333,0,2456.6933)" />
    <path
       id="path2"
       d="M 2125.982,0 H -0.002 v 1842.52 h 2125.984 z"
       style="fill:none;stroke:#231f20;stroke-width:1;stroke-linecap:butt;stroke-linejoin:miter;stroke-miterlimit:10;stroke-dasharray:none;stroke-opacity:1"
       transform="matrix(1.3333333,0,0,-1.3333333,0,2456.6933)"
       clip-path="url(#clipPath3)" />
    <path
       id="path4"
       d="m 0,0 c -16.153,50.896 -34.592,100.945 -58.117,148.937 -4.711,9.616 -7.334,23.323 -24.324,18.98 -5.648,-1.445 -6.926,5.145 -8.66,9.627 -1.767,4.597 -0.888,13.441 -8.041,11.568 -7.405,-1.959 -9.943,-11.362 -5.786,-17.032 7.485,-10.202 9.505,-19.509 4.323,-31.173 -0.84,-1.916 2.472,-5.643 -2.489,-7.222 -15.312,-4.929 -5.581,-12.429 -1.078,-18.044 10.446,-13.025 23.171,-24.589 26.997,-45.85 -24.805,11.299 -45.193,23.145 -50.205,48.017 -4.074,20.119 -13.614,36.528 -26.389,53.57 3.723,-22.192 -21.354,-33.087 -19.28,-54.624 -0.257,-6.23 2.265,-13.896 -7.776,-15.121 -7.082,6.701 -1.364,24.142 -20.167,21.923 -5.633,-0.667 -5.251,10.03 -4.68,15.927 1.08,11.142 6.123,21.216 13.18,29.424 7.277,8.461 2.658,15.378 -1.849,20.827 -5.224,6.247 -10.805,-3.253 -13.673,-3.175 -31.225,0.652 -4.114,-28.617 -18.95,-35.476 -8.163,-16.385 -1.212,-34.054 -4.305,-50.875 -11.881,3.817 -14.42,14.216 -16.714,24.394 -8.551,37.995 9.175,82.923 40.917,105.177 4.274,2.984 10.627,3.621 13.184,12.923 -20.802,-0.696 -28.396,-16.549 -38.377,-28.477 -8.157,3.568 -9.222,13.236 -16.883,18.552 -7.893,-9.918 -8.509,-21.776 -9.935,-33.33 -1.516,-12.204 -2.847,-24.449 -4.333,-37.218 -26.826,18.004 -28.125,72.042 -2.341,98.497 15.802,16.201 34.428,27.685 58.79,19.255 6.904,-2.397 11.837,1.678 17.356,4.122 9.42,4.19 18.686,8.516 29.551,5.169 4.293,-1.339 10.217,-3.549 11.096,4.046 0.72,6.361 -5.24,8.275 -9.462,8.895 -11.502,1.687 -23.226,3.194 -34.791,2.798 -26.009,-0.854 -51.876,-2.604 -71.222,-24.306 -4.15,-4.649 -10.063,-9.137 -17.718,-9.779 16.942,51.199 41.852,89.187 97.968,71.006 -4.615,23.144 -4.689,23.18 -55.927,25.473 18.402,35.159 45.162,39.017 78.252,10.854 15.9,20.084 12.949,57.084 49.216,58.479 15.726,0.62 34.022,6.577 46.964,-8.553 -1.493,-6.597 -5.852,-5.744 -8.46,-5.113 -26.557,6.439 -33.539,-12.526 -39.861,-31.133 -3.67,-10.811 5.275,-10.643 12.154,-10.2 7.878,0.501 10.957,7.382 15.005,12.82 19.812,26.548 48.595,36.428 79.405,41.903 4.862,0.863 13.529,4.351 15.178,-4.733 1.214,-6.838 -2.076,-13.458 -8.019,-17.821 -2.11,-1.561 -4.889,-2.28 -7.434,-3.119 -8.582,-2.849 -23.428,6.278 -24.719,-10.01 -1.196,-15.377 15.657,-9.204 23.294,-14.899 10.2,-7.621 24.995,-6.096 35.782,-14.313 16.798,-12.88 30.38,-27.06 25.862,-52.292 -19.684,8.293 -31.657,25.1 -48.99,34.333 -16.153,8.619 -45.369,4.871 -56.149,-9.262 -1.132,-1.464 -2.299,-3.937 -1.817,-5.396 1.375,-4.071 5.094,-3.929 8.564,-3.178 12.843,2.767 25.625,3.755 38.775,1.802 34.199,-5.08 53.921,-26.536 57.984,-61.095 0.637,-5.402 -1.064,-11.564 -2.414,-11.854 -4.635,-1.035 -8.69,2.916 -10.746,6.864 -10.557,20.291 -28.172,29.099 -49.817,31.136 -6.421,0.618 -15.314,2.596 -17.167,-6.472 -1.753,-8.596 7.331,-8.306 12.511,-10.535 11.99,-5.14 23.637,-10.593 33.495,-22.058 -11.056,-1.576 -20.407,-3.951 -4.176,-16.842 -11.808,6.984 -19.653,0.169 -27.237,-1.342 -15.282,-3.064 -25.817,8.219 -39.326,8.308 -3.835,0.044 -8.827,2.355 -10.863,-2.263 -1.948,-4.391 1.658,-7.747 5.322,-9.926 19.065,-11.374 9.588,-37.77 26.519,-50.27 0.379,-0.26 0.495,-1.567 0.203,-1.926 -21.266,-25.882 4.614,-42.775 13.168,-61.754 17.179,-38.131 33.08,-76.539 44.201,-116.88 z"
       style="fill:#1b4129;fill-opacity:1;fill-rule:evenodd;stroke:none"
       transform="matrix(1.3333333,0,0,-1.3333333,1456.8243,865.5332)"
       clip-path="url(#clipPath5)" />
    <path
       id="path6"
       d="m 0,0 c -0.051,-12.531 5.871,-18.9 14.484,-22.555 3.041,-1.307 6.78,-7.861 11.334,-0.062 3.531,6.084 0.635,8.595 -3.197,11.771 C 16.381,-5.686 9.729,-1.356 0,0 m 66.551,-69.135 c 13.625,0.044 27.648,13.197 23.797,26.513 -6.502,22.391 -29.336,5.815 -43.026,14.334 -6.194,3.846 -10.828,-3.244 -10.777,-10.351 0.098,-11.549 19.002,-30.519 30.006,-30.496 m -137.1,133.126 24.526,10.662 c 20.033,9.372 4.093,24.902 1.852,33.319 -5.046,19.016 8.646,26.158 17.292,32.661 10.711,8.054 17.818,-1.656 19.377,-13.907 0.154,-1.281 4.428,-2.034 6.816,-3.031 -0.101,-2.509 -0.209,-4.996 -0.311,-7.485 -6.209,-0.064 -8.224,-3.412 -6.864,-9.113 1.544,-6.543 3.16,-13.065 0.769,-19.766 C -18.266,77.793 -19.463,69.104 -6.062,59.995 1.771,54.691 6.795,45.384 3.504,36.686 -4.309,16.068 6.865,9.592 23.428,5.374 27.963,4.24 32.221,2.113 36.611,0.407 c 2.18,-5.192 5.7,-8.403 11.728,-7.898 5.975,-1.514 12.594,-1.898 17.782,-4.817 17.578,-9.92 26.984,-9.988 31.727,14.253 4.031,20.625 30.257,26.688 51.203,13.574 12.283,-7.69 24.228,-15.091 38.463,-18.323 9.365,-2.123 14.163,-8.457 13.683,-17.74 -0.535,-9.91 -8.359,-15.486 -16.585,-15.093 -21.131,0.998 -25.932,-11.189 -28.456,-28.596 -3.058,-21.01 -16.361,-35.718 -34.092,-46.504 -16.337,-9.941 -32.892,-19.581 -49.423,-29.233 -9.907,-5.804 -16.284,-14.454 -11.976,-25.427 12.991,-33.104 12.421,-72.069 41.847,-98.111 -0.633,-6.934 7.23,-9.835 7.735,-16.086 0.415,-5.059 2.511,-10.467 -5.57,-12.938 -19.417,-5.963 -33.799,3.467 -34.931,23.83 -0.18,3.357 0.238,6.898 -3.295,9.01 -8.553,18.966 -22.338,35.458 -26.37,56.569 -2.522,13.304 -5.237,26.557 -8.142,39.79 -0.834,3.795 -2.002,8.435 -7.07,8.256 -3.874,-0.132 -4.921,-4.048 -6.176,-7.263 -4.412,-11.168 -3.847,-22.634 -2.165,-34.181 -14.71,-16.491 -18.141,-37.048 -20.967,-57.852 0.029,-1.356 -0.178,-2.78 0.13,-4.092 2.2,-9.502 18.948,-13.83 12.319,-25.075 -7.582,-12.855 -21.262,-2.728 -32.215,-3.67 -1.341,-0.12 -2.728,0.101 -4.099,0.168 -1.733,6.51 -2.406,12.898 -1.443,19.797 3.163,23.08 5.589,46.257 8.291,69.413 5.797,9.561 4.585,20.054 4.174,30.448 0.081,8.69 1.331,17.596 -0.109,26.047 -1.267,7.445 -5.441,14.874 -11.997,2.314 -17.341,-2.659 -23.139,-19.365 -30.262,-30.435 -13.079,-20.361 -23.127,-44.078 -15.006,-70.237 -1.13,-6.32 1.305,-11.072 6.371,-14.691 2.72,-9.43 7.584,-17.596 14.215,-24.756 l 0.015,-0.045 c -0.032,-2.683 -0.047,-5.415 -0.082,-8.128 l 0.035,0.033 c -28.794,-4.839 -28.842,-4.73 -38.49,22.675 -1.275,3.605 -3.549,6.868 -5.355,10.274 -9.009,20.109 -11.895,41.601 -14.35,63.239 -0.98,8.577 -4.582,16.576 -13.805,18.134 -6.686,1.135 -10.634,-4.871 -13.402,-10.617 -12.773,-26.567 -6.935,-55.253 15.222,-75.008 12.907,-23.446 12.907,-23.446 -14.365,-28.008 -1.97,-0.307 -3.963,-0.617 -5.95,-0.928 -11.381,8.235 -11.381,23.585 -20.701,33.135 -19.881,49.364 -5.632,93.637 21.44,135.314 5.04,7.757 5.931,14.757 5.748,22.861 -0.946,40.421 20.703,68.043 60.191,76.698 20.464,4.491 24.001,11.807 12.878,29.373 -11.022,17.348 -13.613,35.066 -5.508,54.131"
       style="fill:#13110f;fill-opacity:1;fill-rule:evenodd;stroke:none"
       transform="matrix(1.3333333,0,0,-1.3333333,1550.8984,950.84573)"
       clip-path="url(#clipPath7)" />
    <path
       id="path8"
       d="m 0,0 c 0.102,2.504 0.207,4.994 0.312,7.487 6.276,13.371 12.749,26.661 18.739,40.13 2.305,5.174 9.236,11.348 2.47,16.25 -7.357,5.352 -9.644,-4.075 -13.628,-7.883 -1.457,-1.393 -2.727,-3.008 -4.455,-4.912 -6.845,2.575 -3.696,14.247 -11.219,14.247 -8.094,0 -12.565,-7.501 -16.832,-13.461 -8.194,-11.465 -15.793,-23.377 -24.086,-35.741 -14.506,41.424 -10.198,53.422 25.304,73.744 5.934,3.418 19.237,5.959 2.885,14.167 -11.365,1.968 -23.998,11.222 -32.052,-5.632 l 0.103,0.176 c -2.131,-0.144 -4.262,-0.276 -6.373,-0.422 -1.643,-0.167 -3.312,-0.332 -4.951,-0.511 -9.872,9.609 8.355,16.774 2.262,26.042 8.173,10.612 19.569,11.585 31.4,9.848 6.726,-0.97 13.167,-3.999 19.871,-4.97 8.656,-1.258 19.979,-3.647 23.088,6.917 2.818,9.545 -8.905,10.043 -14.949,13.512 -14.692,8.458 -29.252,8.487 -45.078,1.443 -13.301,-5.949 -26.618,-13.673 -42.555,-13.049 10.286,40.677 53.09,57.57 85.664,34.862 7.861,-5.483 16.149,-10.335 24.076,-15.707 5.837,-3.927 11.225,-3.879 17.033,0.152 6.261,4.375 6.054,10.234 4.407,16.475 -2.286,8.569 -14.13,16.554 -0.097,26.062 2.897,1.975 -3.196,8.399 -6.55,11.33 -10.617,9.303 -21.746,18.001 -32.694,26.93 34.759,7.263 69.725,-12.052 84.405,-46.004 3.238,-7.445 0.391,-20.822 11.824,-21.02 15.365,-0.293 34.672,-3.048 44.471,10.072 10.252,13.678 17.292,29.366 37.117,25.917 21.85,-3.774 31.562,-22.348 41.62,-39.595 0.618,-1.064 0.486,-2.58 0.9,-5.189 -8.911,-2.561 -16.983,1.668 -25.307,2.895 -10.09,1.532 -20.338,4.292 -30.398,0.129 -7.002,-2.926 -15.655,-6.886 -12.631,-15.703 2.83,-8.312 10.466,-1.809 15.89,-0.867 27.465,4.826 53.213,0.806 76.701,-14.62 4.165,-2.744 11.959,-4.87 8.62,-11.587 -2.239,-4.452 -8.259,-2.802 -12.537,0.274 -1.061,0.753 -2.603,1.335 -3.86,1.217 -8.435,-0.703 -18.969,5.441 -24.74,-3.93 -5.368,-8.719 8.393,-11.158 8.705,-18.886 -4.15,-4.555 -13.453,3.227 -15.533,-4.918 -1.701,-6.599 5.305,-10.458 9.01,-15.161 4.638,-5.941 9.287,-11.88 14.181,-17.609 5.149,-6.078 9.522,-12.017 -3.338,-12.858 -12.166,-0.823 -8.488,-7.608 -5.783,-13.972 4.605,-10.83 8.208,-21.769 5.67,-34.041 -7.877,0.396 -9.531,14.534 -17.867,9.391 -3.471,-2.146 -2.721,-11.142 -4.053,-17.936 -10.558,12.87 -21.078,25.734 -34.297,41.827 -4.205,-27.449 3.554,-55.324 -20.082,-73 -6.453,-4.83 -13.394,-9.382 -23.746,-6.513 9.924,13.414 15.213,26.814 13.429,43.774 -1.669,15.642 -18.264,16.5 -23.208,28.819 -1.635,4.089 -4.895,-5.457 -7.617,-8.541 -8.764,-6.155 -5.401,-15.455 -6.12,-23.695 l -0.083,-0.221 c -8.307,-0.546 -8.17,-6.448 -7.881,-12.462 l -0.097,-0.124 c -3.587,0.078 -6.732,-0.681 -7.915,-4.684 -1.457,-1.202 -2.936,-2.416 -4.4,-3.637 -3.737,-1.721 -4.327,-4.871 -3.888,-8.52 -0.72,-2.588 -1.44,-5.16 -2.159,-7.748 -4.487,-0.195 -8.931,-0.397 -13.402,-0.604 3.936,13.023 6.099,26.239 7.554,39.855 C 73.002,14.091 50.362,8.486 54.228,25.147 30.247,2.148 19.803,-26.433 2.424,-50.529 c -6.404,6.06 -3.747,12.7 -5.312,18.33 C 1.686,-21.796 0.312,-10.841 0,0"
       style="fill:#1b4129;fill-opacity:1;fill-rule:evenodd;stroke:none"
       transform="matrix(1.3333333,0,0,-1.3333333,1549.5807,795.91467)"
       clip-path="url(#clipPath9)" />
    <path
       id="path10"
       d="m 0,0 c 9.324,-9.567 9.324,-24.9 20.724,-33.154 12.531,-12.596 28.631,-2.868 36.511,22.1 38.689,-31.504 38.689,-31.504 53.967,-21.842 l -0.032,-0.034 c 8.617,0.087 17.229,0.187 25.829,0.282 1.378,-0.076 2.768,-0.296 4.109,-0.176 10.946,0.942 24.65,-9.185 32.215,3.67 6.628,11.245 -10.133,15.573 -12.326,25.084 -0.293,1.302 -0.08,2.727 -0.118,4.083 10.746,0.258 21.504,0.496 32.235,0.751 12.877,-2.024 25.765,-4.046 38.64,-6.092 3.553,-2.109 3.125,-5.647 3.309,-8.988 1.128,-20.381 15.51,-29.786 34.92,-23.846 8.101,2.487 6.006,7.875 5.577,12.954 -0.516,6.251 -8.376,9.138 -7.737,16.086 36.968,5.371 71.392,-10.193 107.414,-13.556 37.667,-3.518 73.709,-17.032 108.426,-32.982 10.83,-4.959 27.097,1.458 32.287,-17.331 h -918.598 c 18.492,30.04 49.01,25.833 75.053,30.878 17.027,3.299 35.197,0.569 51.491,8.926 9.188,0.193 18.349,0.363 27.537,0.539 7.536,2.227 15.227,-6.942 22.706,0.247 10.611,-6.158 21.273,-5.733 31.961,-0.231 4.262,0.015 8.518,0.015 12.777,0.015 14.28,-6.302 25.409,-4.896 30.074,12.325 16.233,4.599 33.077,3.563 49.637,5.205 9.181,-1.414 15.673,2.214 19.618,10.513 C -54.801,1.967 -27.272,-1.066 0,0"
       style="fill:#ceb15f;fill-opacity:1;fill-rule:evenodd;stroke:none"
       transform="matrix(1.3333333,0,0,-1.3333333,1330.4811,1290.0267)"
       clip-path="url(#clipPath11)" />
    <path
       id="path12"
       d="m 0,0 c 15.514,-16.405 28.221,-34.997 43.826,-50.958 4.577,-4.695 13.191,-2.402 18.674,3.067 5.505,5.532 9.817,12.205 7.879,20.114 -2.094,8.5 -10.219,4.313 -15.656,5.328 -10.008,1.875 -19.213,3.536 -27.912,10.744 C 20.032,-6.073 13.61,2.508 0,0 m -96.49,-224.881 c -9.162,-0.168 -18.346,-0.346 -27.534,-0.515 -27.188,46.687 -23.718,91.857 7.039,135.495 3.506,4.934 4.1,10.101 3.397,15.577 -3.673,28.957 6.973,45.543 43.878,60.53 13.576,5.522 18.49,10.061 12.925,25.002 -5.39,14.475 -10.402,30.298 0.242,45.307 0.395,0.55 0.855,1.194 0.886,1.815 1.142,21.75 1.158,21.716 18.265,43.004 2.524,3.14 4.776,6.591 6.63,10.162 4.345,8.29 10.971,6.178 17.644,4.27 -3.053,-8.427 12.514,-7.501 7.911,-20.995 -4.457,-13.057 -15.806,-31.566 0.98,-46.466 1.889,-1.664 2.903,-4.602 3.728,-7.138 C 2.541,31.641 -6.288,17.868 4.029,12.416 22.488,2.688 42.76,-3.72 62.484,-10.892 c 8.133,-2.965 9.573,2.789 11.632,9.647 6.83,22.7 23.327,28.574 44.22,16.219 8.812,-5.239 16.723,-11.894 27.393,-13.34 7.846,-1.048 12.137,-5.5 12.119,-13.851 -0.036,-8.655 -5.352,-13.168 -12.698,-13.083 -16.115,0.213 -20.41,-8.823 -22.761,-22.779 -2.87,-16.923 -12.891,-29.935 -28.173,-38.504 -8.959,-5.022 -17.76,-10.315 -26.653,-15.443 -25.942,-15.003 -26.21,-15.741 -16.068,-43.381 6.263,-17.106 5.539,-36.799 18.818,-51.354 -3.972,-8.337 -10.464,-11.965 -19.624,-10.563 -15.758,26.388 -26.369,54.865 -31.53,85.672 -14.85,-19.702 -9.66,-44.231 -22.337,-62.616 -7.862,-11.411 -6.059,-20.153 4.207,-28.234 -4.654,-17.216 -15.774,-18.627 -30.076,-12.351 2.595,18.885 5.116,37.819 7.797,56.723 2.282,16.181 6.692,32.2 5.029,48.694 -0.499,4.846 1.543,11.661 -6.184,13.41 -5.423,1.2 -8.964,-1.769 -12.238,-5.629 -31.123,-36.753 -44.179,-71.331 -7.175,-113.211 -10.696,-5.472 -21.353,-5.917 -31.94,0.262 -6.685,25.004 -17.996,48.745 -20.051,75.083 -0.485,6.08 -2.538,13.522 -9.822,13.865 -8.188,0.397 -10.679,-6.936 -12.5,-13.835 -5.261,-20.047 -7.121,-38.968 11.829,-54.068 6.133,-4.894 12.447,-11.607 7.812,-21.322"
       style="fill:#13110f;fill-opacity:1;fill-rule:evenodd;stroke:none"
       transform="matrix(1.3333333,0,0,-1.3333333,1127.6985,1033.7272)"
       clip-path="url(#clipPath13)" />
    <path
       id="path14"
       d="m 0,0 c -0.069,-6.909 -6.05,-9.266 -10.158,-12.998 -87.456,-79.703 -149.572,-175.28 -184.194,-288.95 -22.554,-73.983 -31.85,-149.545 -25.641,-226.015 13.375,-165.175 81.008,-305.428 202.887,-418.222 72.699,-67.271 157.645,-114.629 252.914,-141.358 84.153,-23.553 170.031,-29.149 257.185,-16.824 89.328,12.619 171.728,42.73 248.134,90.234 5.4,3.363 10.623,9.221 18.683,6.507 -1.385,-10.602 -11.167,-13.102 -17.699,-17.193 -72.621,-45.599 -151.085,-77.302 -235.786,-90.84 -135.046,-21.541 -264.579,-2.91 -387.952,57.583 -105.694,51.829 -189.984,128.254 -253.327,226.11 -50.167,77.491 -81.05,163.353 -93.719,255.882 -10.346,75.548 -7.053,150.094 8.709,223.874 15.141,70.89 42.492,137.466 81.595,199.044 35.024,55.141 76.491,104.42 126.542,146.461 3.49,2.926 6.52,6.59 11.539,7.009 z"
       style="fill:#ccb976;fill-opacity:1;fill-rule:evenodd;stroke:none"
       transform="matrix(1.3333333,0,0,-1.3333333,868.2624,260.66467)"
       clip-path="url(#clipPath15)" />
    <path
       id="path16"
       d="M 0,0 C -65.105,221.212 -200.729,382.8 -406.92,485.714 -298.904,446.192 -209.807,379.97 -137.16,291.98 -66.74,206.691 -19.121,109.96 0,0"
       style="fill:#ccb976;fill-opacity:1;fill-rule:evenodd;stroke:none"
       transform="matrix(1.3333333,0,0,-1.3333333,2282.4219,813.13733)"
       clip-path="url(#clipPath17)" />
    <path
       id="path18"
       d="M 0,0 C -140.437,196.39 -143.629,472.96 -49.503,649.582 -88.5,542.344 -107.141,432.607 -98.261,318.102 -89.439,204.41 -53.242,99.833 0,0"
       style="fill:#ccb976;fill-opacity:1;fill-rule:evenodd;stroke:none"
       transform="matrix(1.3333333,0,0,-1.3333333,574.90173,1442.334)"
       clip-path="url(#clipPath19)" />
    <path
       id="path20"
       d="m 0,0 c 4.471,0.208 8.926,0.392 13.401,0.601 -9.257,-27.48 -18.508,-54.965 -27.759,-82.454 -6.032,-0.504 -9.571,2.707 -11.746,7.899 C -17.405,-49.305 -8.696,-24.653 0,0"
       style="fill:#1b4129;fill-opacity:1;fill-rule:evenodd;stroke:none"
       transform="matrix(1.3333333,0,0,-1.3333333,1634.5091,851.6972)"
       clip-path="url(#clipPath21)" />
    <path
       id="path22"
       d="M 0,0 C 10.041,1.203 7.519,8.892 7.776,15.124 22.642,-0.355 21.246,-21.339 30.627,-44.234 11.055,-31.088 2.23,-17.706 0,0"
       style="fill:#1b4129;fill-opacity:1;fill-rule:evenodd;stroke:none"
       transform="matrix(1.3333333,0,0,-1.3333333,1215.7247,730.0124)"
       clip-path="url(#clipPath23)" />
    <path
       id="path24"
       d="M 0,0 C 6.093,-9.287 -12.135,-16.433 -2.263,-26.042 -4.863,-33.761 -8.469,-40.901 -15.17,-48.388 -19.001,-28.375 -14.591,-12.647 0,0"
       style="fill:#1b4129;fill-opacity:1;fill-rule:evenodd;stroke:none"
       transform="matrix(1.3333333,0,0,-1.3333333,1467.5533,631.0072)"
       clip-path="url(#clipPath25)" />
    <path
       id="path26"
       d="M 0,0 C 3.092,16.81 -3.87,34.481 4.304,50.862 3.434,33.988 3.714,17.151 6.334,0.393 6.401,-0.133 4.371,-1.493 3.257,-1.572 2.208,-1.662 1.08,-0.582 0,0"
       style="fill:#1b4129;fill-opacity:1;fill-rule:evenodd;stroke:none"
       transform="matrix(1.3333333,0,0,-1.3333333,1148.4661,731.9108)"
       clip-path="url(#clipPath27)" />
    <path
       id="path28"
       d="M 0,0 C 8.061,16.85 20.668,7.599 32.033,5.629 21.898,0.587 9.139,10.627 0,0"
       style="fill:#1b4129;fill-opacity:1;fill-rule:evenodd;stroke:none"
       transform="matrix(1.3333333,0,0,-1.3333333,1479.5079,664.70893)"
       clip-path="url(#clipPath29)" />
    <path
       id="path30"
       d="M 0,0 C 0.719,8.238 -2.641,17.522 6.098,23.685 5.584,15.396 5.979,6.877 0,0"
       style="fill:#1b4129;fill-opacity:1;fill-rule:evenodd;stroke:none"
       transform="matrix(1.3333333,0,0,-1.3333333,1687.6172,801.02667)"
       clip-path="url(#clipPath31)" />
    <path
       id="path32"
       d="m 0,0 c -0.397,-5.169 -3.218,-8.076 -9.718,-9.283 0.781,6.438 4.275,8.763 9.608,9.408 z"
       style="fill:#ccb976;fill-opacity:1;fill-rule:evenodd;stroke:none"
       transform="matrix(1.3333333,0,0,-1.3333333,891.0716,242.1152)"
       clip-path="url(#clipPath33)" />
    <path
       id="path34"
       d="M 0,0 C 1.466,2.96 3.288,5.53 7.056,5.315 7.535,5.287 8.511,3.606 8.302,3.132 6.663,-0.476 3.273,-0.086 0.096,-0.125 0.11,-0.125 0,0 0,0"
       style="fill:#ccb976;fill-opacity:1;fill-rule:evenodd;stroke:none"
       transform="matrix(1.3333333,0,0,-1.3333333,890.92507,241.94853)"
       clip-path="url(#clipPath35)" />
    <path
       id="path36"
       d="M 0,0 C -0.311,6.011 -0.432,11.908 7.879,12.48 7.352,7.006 4.615,2.9 0,0"
       style="fill:#1b4129;fill-opacity:1;fill-rule:evenodd;stroke:none"
       transform="matrix(1.3333333,0,0,-1.3333333,1677.0027,817.96027)"
       clip-path="url(#clipPath37)" />
    <path
       id="path38"
       d="m 0,0 c -0.863,0.427 -1.694,0.878 -2.537,1.304 0.915,0.341 1.85,0.981 2.756,0.917 C 1.096,2.179 1.937,1.432 2.785,1.003 1.865,0.656 0.945,0.332 0,0"
       style="fill:#ccb976;fill-opacity:1;fill-rule:evenodd;stroke:none"
       transform="matrix(1.3333333,0,0,-1.3333333,1702.2656,153.8652)"
       clip-path="url(#clipPath39)" />
    <path
       id="path40"
       d="m 0,0 c -1.594,0.396 -3.224,0.793 -4.815,1.188 0.33,0.43 0.918,1.267 0.975,1.238 1.279,-0.789 2.505,-1.684 3.726,-2.554 z"
       style="fill:#ccb976;fill-opacity:1;fill-rule:evenodd;stroke:none"
       transform="matrix(1.3333333,0,0,-1.3333333,1723.0508,159.19467)"
       clip-path="url(#clipPath41)" />
    <path
       id="path42"
       d="M 0,0 C 1.647,-0.341 3.305,-0.686 4.967,-1.038 2.439,-4.437 1.465,-1.369 0.114,0.128 Z"
       style="fill:#ccb976;fill-opacity:1;fill-rule:evenodd;stroke:none"
       transform="matrix(1.3333333,0,0,-1.3333333,1722.8984,159.3652)"
       clip-path="url(#clipPath43)" />
    <path
       id="path44"
       d="M 0,0 C -0.431,3.622 0.151,6.797 3.897,8.517 2.591,5.683 1.29,2.85 0,0"
       style="fill:#1b4129;fill-opacity:1;fill-rule:evenodd;stroke:none"
       transform="matrix(1.3333333,0,0,-1.3333333,1655.2565,840.55533)"
       clip-path="url(#clipPath45)" />
    <path
       id="path46"
       d="M 0,0 C 1.184,3.996 4.324,4.736 7.912,4.666 6.764,0.619 3.377,0.294 0,0"
       style="fill:#1b4129;fill-opacity:1;fill-rule:evenodd;stroke:none"
       transform="matrix(1.3333333,0,0,-1.3333333,1666.2969,824.35213)"
       clip-path="url(#clipPath47)" />
    <path
       id="path48"
       d="M 0,0 C 0.602,0.709 1.22,1.428 1.824,2.146 3.714,-0.198 1.561,0.03 0.288,-0.3 L 0,0"
       style="fill:#ccb976;fill-opacity:1;fill-rule:evenodd;stroke:none"
       transform="matrix(1.3333333,0,0,-1.3333333,867.87827,260.27533)"
       clip-path="url(#clipPath49)" />
    <path
       id="path50"
       d="M 0,0 C 2.114,0.136 4.244,0.277 6.365,0.412 4.619,-5.369 2.404,-4.274 0,0"
       style="fill:#1b4129;fill-opacity:1;fill-rule:evenodd;stroke:none"
       transform="matrix(1.3333333,0,0,-1.3333333,1471.1511,665.04747)"
       clip-path="url(#clipPath51)" />
    <path
       id="path52"
       d="M 0,0 C -5.081,3.619 -7.503,8.371 -6.369,14.675 8.596,45.6 23.569,76.538 38.556,107.469 52.296,106.493 43.323,91.687 50.999,86.99 51.394,76.607 52.608,66.115 46.825,56.568 38.771,47.971 36.772,36.423 33.333,25.991 27.793,9.074 19.141,-1.607 0,0"
       style="fill:#1b4129;fill-opacity:1;fill-rule:evenodd;stroke:none"
       transform="matrix(1.3333333,0,0,-1.3333333,1459.8659,1290.0267)"
       clip-path="url(#clipPath53)" />
    <path
       id="path54"
       d="m 0,0 c 19.141,-1.607 27.793,9.074 33.333,25.991 3.439,10.432 5.438,21.98 13.492,30.577 -2.715,-23.171 -5.127,-46.336 -8.303,-69.427 -0.964,-6.899 -0.277,-13.287 1.438,-19.789 -8.6,-0.095 -17.212,-0.195 -25.828,-0.282 0.031,2.714 0.053,5.429 0.081,8.144 18.541,-2.964 19.999,-0.457 12.698,22.464 C 16.673,-6.51 13.1,-14.271 14.194,-24.756 7.566,-17.597 2.702,-9.422 0,0"
       style="fill:#ccb976;fill-opacity:1;fill-rule:evenodd;stroke:none"
       transform="matrix(1.3333333,0,0,-1.3333333,1459.8659,1290.0267)"
       clip-path="url(#clipPath55)" />
    <path
       id="path56"
       d="M 0,0 C 7.37,-18.316 6.798,-38.208 11.272,-57.102 0.528,-57.348 -10.231,-57.595 -20.979,-57.853 -18.142,-37.049 -14.693,-16.48 0,0"
       style="fill:#1b4129;fill-opacity:1;fill-rule:evenodd;stroke:none"
       transform="matrix(1.3333333,0,0,-1.3333333,1572.9361,1212.8731)"
       clip-path="url(#clipPath57)" />
    <path
       id="path58"
       d="m 0,0 c 8.172,5.213 17.592,2.525 26.335,4.252 1.818,-3.406 4.08,-6.669 5.373,-10.274 9.63,-27.405 9.678,-27.514 38.463,-22.675 -15.272,-9.661 -15.272,-9.661 -53.966,21.855 -7.897,-24.981 -23.981,-34.709 -36.529,-22.113 2.008,0.33 3.982,0.64 5.959,0.947 C 12.907,-23.446 12.907,-23.446 0,0"
       style="fill:#ccb976;fill-opacity:1;fill-rule:evenodd;stroke:none"
       transform="matrix(1.3333333,0,0,-1.3333333,1385.1888,1295.6256)"
       clip-path="url(#clipPath59)" />
    <path
       id="path60"
       d="m 0,0 0.36,7.894 c 6.518,12.56 10.71,5.129 11.983,-2.314 1.445,-8.451 0.167,-17.357 0.1,-26.047 C 4.768,-15.782 13.74,-0.986 0,0"
       style="fill:#1b4129;fill-opacity:1;fill-rule:evenodd;stroke:none"
       transform="matrix(1.3333333,0,0,-1.3333333,1511.2735,1146.7351)"
       clip-path="url(#clipPath61)" />
    <path
       id="path62"
       d="M 0,0 C -1.095,10.487 2.479,18.248 12.717,22.456 20.018,-0.461 18.56,-2.986 0.019,-0.037 Z"
       style="fill:#ceb15f;fill-opacity:1;fill-rule:evenodd;stroke:none"
       transform="matrix(1.3333333,0,0,-1.3333333,1478.7917,1323.0449)"
       clip-path="url(#clipPath63)" />
    <path
       id="path64"
       d="M 0,0 C 0,0 13.465,-2.389 12.365,-20.887 11.242,-39.394 30.302,0 30.302,0 L 6.146,17.2 Z"
       style="fill:#13110f;fill-opacity:1;fill-rule:evenodd;stroke:none"
       transform="matrix(1.3333333,0,0,-1.3333333,1511.7369,1136.2103)"
       clip-path="url(#clipPath65)" />
    <path
       id="path66"
       d="m 0,0 c -8.839,-3.035 -20.311,-6.001 -34.419,-8.881 -14.112,-2.887 -28.023,-4.334 -41.724,-4.334 -31.649,0 -56.873,7.693 -75.672,23.068 -18.799,15.381 -28.202,37.197 -28.202,65.449 0,26.574 9.403,47.879 28.202,63.904 18.799,16.025 44.515,24.037 77.158,24.037 16.861,0 30.564,-1.348 41.116,-4.046 10.547,-2.693 21.457,-6.358 32.727,-10.99 V 108.452 H -5.41 c -2.434,1.59 -5.927,3.851 -10.485,6.775 -4.552,2.921 -8.99,5.414 -13.318,7.46 -5.051,2.431 -10.888,4.518 -17.516,6.263 -6.629,1.753 -13.638,2.624 -21.03,2.624 -8.657,0 -16.546,-1.141 -23.669,-3.417 -7.122,-2.277 -13.483,-5.775 -19.07,-10.484 -5.318,-4.555 -9.53,-10.328 -12.645,-17.309 -3.111,-6.99 -4.667,-15.121 -4.667,-24.381 0,-19.825 5.905,-34.445 17.72,-43.856 11.808,-9.42 27.948,-14.13 48.415,-14.13 1.806,0 3.922,0.043 6.359,0.117 2.433,0.073 4.553,0.189 6.356,0.342 v 33.263 h -39.085 v 31.78 l 88.045,0 z"
       style="fill:#231f20;fill-opacity:1;fill-rule:nonzero;stroke:none"
       transform="matrix(1.3333333,0,0,-1.3333333,535.2012,2191.8483)"
       clip-path="url(#clipPath67)" />
    <path
       id="path68"
       d="M 0,0 V 169.62 H 136.198 V 137.27 H 50.315 v -29.737 h 79.118 V 75.182 H 50.315 V 32.35 h 85.883 V 0 Z"
       style="fill:#231f20;fill-opacity:1;fill-rule:nonzero;stroke:none"
       transform="matrix(1.3333333,0,0,-1.3333333,586.05147,2204.7559)"
       clip-path="url(#clipPath69)" />
    <path
       id="path70"
       d="m 0,0 h -159.731 v 31.782 l 92.648,105.488 h -87.776 v 32.35 H -5.413 V 137.27 L -97.917,32.35 H 0 Z"
       style="fill:#231f20;fill-opacity:1;fill-rule:nonzero;stroke:none"
       transform="matrix(1.3333333,0,0,-1.3333333,1008.2051,2204.7559)"
       clip-path="url(#clipPath71)" />
    <path
       id="path72"
       d="m 852.584,377.596 h -48.687 v 31.1 h 48.687 z M 882.741,188.953 H 774.277 v 29.616 h 28.941 v 110.388 h -28.941 v 29.616 h 108.464 v -29.616 h -28.94 V 218.569 h 28.94 z"
       style="fill:#231f20;fill-opacity:1;fill-rule:nonzero;stroke:none"
       transform="matrix(1.3333333,0,0,-1.3333333,0,2456.6933)"
       clip-path="url(#clipPath73)" />
    <path
       id="path74"
       d="M 0,0 V 169.62 H 136.049 V 137.27 H 50.258 v -29.737 h 79.03 V 75.182 H 50.258 V 32.35 h 85.791 V 0 Z"
       style="fill:#231f20;fill-opacity:1;fill-rule:nonzero;stroke:none"
       transform="matrix(1.3333333,0,0,-1.3333333,1327.0149,2204.7559)"
       clip-path="url(#clipPath75)" />
    <path
       id="path76"
       d="m 0,0 h -61.064 l -54.85,68.918 -9.865,-11.618 V 0 h -50.527 v 169.62 h 50.527 V 94.322 l 64.308,75.298 H -2.973 L -74.709,90.905 Z"
       style="fill:#231f20;fill-opacity:1;fill-rule:nonzero;stroke:none"
       transform="matrix(1.3333333,0,0,-1.3333333,1789.0573,2204.7559)"
       clip-path="url(#clipPath77)" />
    <path
       id="path78"
       d="m 1428.257,377.596 h -48.64 v 31.1 h 48.64 z m 30.13,-188.643 h -108.355 v 29.616 h 28.912 v 110.388 h -28.912 v 29.616 h 108.355 v -29.616 h -28.918 V 218.569 h 28.918 z"
       style="fill:#231f20;fill-opacity:1;fill-rule:nonzero;stroke:none"
       transform="matrix(1.3333333,0,0,-1.3333333,0,2456.6933)"
       clip-path="url(#clipPath79)" />
    <path
       id="path80"
       d="m 0,0 c 0,5.238 -1.258,9.344 -3.777,12.305 -2.526,2.965 -6.307,5.199 -11.35,6.722 -3.062,0.982 -7.275,1.535 -12.631,1.649 -5.363,0.115 -12.545,0.17 -21.551,0.17 h -9.324 v -42.49 h 2.707 c 13.145,0 22.244,0.076 27.289,0.227 5.043,0.152 10.174,1.18 15.401,3.077 4.595,1.671 7.947,4.119 10.066,7.35 C -1.057,-7.765 0,-4.1 0,0 m -12.697,68.919 c 0,2.733 -0.832,5.544 -2.494,8.431 -1.672,2.886 -4.26,4.973 -7.774,6.267 -3.33,1.209 -7.271,1.88 -11.82,1.992 -4.549,0.114 -11.324,0.174 -20.332,0.174 h -3.516 V 49.898 h 6.354 c 8.646,0 14.699,0.075 18.168,0.229 3.468,0.149 7.047,0.945 10.742,2.388 4.053,1.598 6.844,3.799 8.377,6.607 1.529,2.812 2.295,6.075 2.295,9.797 M 52.018,-0.798 c 0,-8.426 -1.891,-15.833 -5.678,-22.213 -3.777,-6.375 -8.869,-11.659 -15.262,-15.834 -7.566,-5.012 -15.877,-8.583 -24.93,-10.708 -9.044,-2.128 -20.554,-3.187 -34.517,-3.187 h -80.518 v 169.62 h 71.063 c 14.771,0 25.963,-0.474 33.57,-1.421 7.611,-0.955 14.752,-2.943 21.414,-5.985 7.207,-3.269 12.584,-7.631 16.143,-13.099 3.558,-5.47 5.338,-11.773 5.338,-18.908 0,-8.279 -2.453,-15.649 -7.364,-22.102 -4.912,-6.459 -11.685,-11.2 -20.33,-14.24 v -0.91 C 23.377,38.013 33.326,33.512 40.805,26.713 48.279,19.914 52.018,10.742 52.018,-0.798"
       style="fill:#231f20;fill-opacity:1;fill-rule:nonzero;stroke:none"
       transform="matrix(1.3333333,0,0,-1.3333333,2134.3672,2134.4355)"
       clip-path="url(#clipPath81)" />
    <path
       id="path82"
       d="m 0,0 h -108.35 v 29.616 h 28.911 V 140.004 H -108.35 V 169.62 H 0 V 140.004 H -28.91 V 29.616 H 0 Z"
       style="fill:#231f20;fill-opacity:1;fill-rule:nonzero;stroke:none"
       transform="matrix(1.3333333,0,0,-1.3333333,2375.9271,2204.7559)"
       clip-path="url(#clipPath83)" />
    <path
       id="path84"
       d="m 0,0 c 0,-14.939 -14.141,-27.056 -31.586,-27.056 -17.449,0 -31.588,12.117 -31.588,27.056 0,14.936 14.139,27.053 31.588,27.053 C -14.141,27.053 0,14.936 0,0 Z"
       style="fill:none;stroke:#231f20;stroke-width:5;stroke-linecap:butt;stroke-linejoin:miter;stroke-miterlimit:10;stroke-dasharray:none;stroke-opacity:1"
       transform="matrix(1.3333333,0,0,-1.3333333,2345.0937,1934.7688)"
       clip-path="url(#clipPath85)" />
    <path
       id="path86"
       d="m 0,0 c 0,0.915 -0.215,1.735 -0.654,2.444 -0.438,0.717 -1.112,1.301 -2.022,1.75 -0.795,0.396 -1.722,0.676 -2.787,0.843 -1.06,0.159 -2.379,0.237 -3.953,0.237 h -5.572 V -6.632 h 4.945 c 1.613,0 3.063,0.102 4.352,0.319 1.293,0.207 2.39,0.647 3.302,1.31 0.813,0.591 1.416,1.299 1.805,2.121 C -0.197,-2.065 0,-1.104 0,0 M 12.174,-22.677 H 4.865 l -13.428,12.542 h -6.425 v -12.542 h -5.633 V 8.879 h 10.918 c 2.43,0 4.465,-0.098 6.105,-0.298 C -1.959,8.386 -0.396,7.925 1.082,7.204 2.559,6.5 3.729,5.586 4.592,4.472 5.457,3.355 5.887,1.973 5.887,0.317 5.887,-2.002 5.1,-3.935 3.527,-5.487 1.953,-7.046 -0.189,-8.197 -2.902,-8.942 Z"
       style="fill:#231f20;fill-opacity:1;fill-rule:nonzero;stroke:none"
       transform="matrix(1.3333333,0,0,-1.3333333,2313.7604,1925.0592)"
       clip-path="url(#clipPath87)" />
  </g>
</svg>
